PathFileType	4	(X/Y/Z)	D:\TRACE\v60_Jaco2_6-2-23\BothDRS_Motion3_8-platform.trc
DataRate	CameraRate	NumFrames	NumMarkers	Units	OrigDataRate	OrigDataStartFrame	OrigNumFrames
100.00	100.00	      36	5	mm	100.00	4376	      7000
Frame#	Time	Left_Front			Right_Front			Left_Aft			Right_Aft			Post			
		X1	Y1	Z1	X2	Y2	Z2	X3	Y3	Z3	X4	Y4	Z4	X5	Y5	Z5	

4376	43.750	-756.42358	-29.97858	-658.94733	814.47729	-31.14163	-636.46729	-687.09082	38.13763	475.53833	727.40387	40.42263	578.49078	39.44503	1246.81348	-1048.58081	
4377	43.760	-756.47015	-29.38347	-658.73370	814.35938	-30.18974	-636.30322	-687.09338	37.65158	475.75989	727.19666	39.67695	578.72968	39.43484	1247.85803	-1047.17517	
4378	43.770	-756.81976	-28.25966	-658.55664	814.18030	-29.43458	-636.27771	-687.25031	37.11401	476.04468	726.83563	38.98151	578.90729	39.52883	1249.20154	-1045.63684	
4379	43.780	-757.50586	-27.14120	-658.15234	813.84338	-28.74072	-636.24591	-687.51563	36.65121	476.22467	726.74860	38.45610	579.08643	38.86623	1250.40503	-1044.03564	
4380	43.790	-757.19531	-26.96191	-658.27930	813.66223	-27.94423	-635.88489	-687.80579	35.99942	476.52444	726.55792	37.84087	579.39001	38.68648	1251.59143	-1042.41125	
4381	43.800	-757.37506	-25.92996	-657.87079	813.35242	-27.13132	-635.84949	-687.94012	35.46893	476.66782	726.26135	37.02308	579.71747	38.69474	1253.11816	-1040.61414	
4382	43.810	-757.47217	-25.22173	-657.56226	813.03558	-26.01688	-635.19611	-688.01300	34.80386	477.06451	726.09424	36.33282	579.85541	38.47018	1254.43018	-1039.04077	
4383	43.820	-757.38995	-24.19897	-657.69592	812.79944	-25.19955	-635.23224	-688.24060	34.30698	477.02731	725.94720	35.77760	580.13623	38.36496	1255.80444	-1036.92639	
4384	43.830	-757.68365	-23.18198	-657.40094	812.61206	-24.28589	-635.03180	-688.74548	34.32332	477.29587	725.77954	35.14276	580.29614	37.97591	1257.20361	-1035.10291	
4385	43.840	-757.86377	-22.48501	-657.37921	812.37494	-23.57693	-634.82257	-688.95972	33.52321	477.64978	725.51874	34.38866	580.54480	37.69982	1258.62708	-1032.90637	
4386	43.850	-758.06879	-21.75865	-657.38092	812.18671	-22.59315	-634.74762	-689.31561	32.70678	477.84482	725.13995	33.50929	580.79547	37.40801	1259.96448	-1031.08606	
4387	43.860	-758.58478	-20.47106	-657.05212	811.92200	-21.60601	-634.57117	-689.55072	32.32315	478.01257	724.99158	32.91261	581.16925	37.15142	1261.29175	-1028.91199	
4388	43.870	-759.41229	-19.20360	-656.72900	811.86908	-20.59305	-634.28857	-689.77374	31.78863	478.17532	724.75159	32.14055	581.23578	37.12643	1263.07251	-1026.85022	
4389	43.880	-759.45471	-18.51700	-656.74500	811.52209	-19.60469	-634.33679	-689.97552	31.21256	478.44165	724.44055	31.40006	581.49756	36.61436	1264.07117	-1024.93652	
4390	43.890	-759.42102	-17.63767	-656.59192	811.19458	-18.87767	-634.02631	-690.14508	30.57064	478.80255	724.31696	30.83347	581.80115	36.47848	1265.75769	-1022.79498	
4391	43.900	-759.63055	-16.89549	-656.40039	810.82373	-18.11853	-633.81689	-690.43384	29.62399	479.03638	724.06317	30.18226	581.97119	36.07473	1267.20020	-1020.97150	
4392	43.910	-759.76538	-15.80820	-656.36346	810.74908	-17.28233	-633.57043	-690.55804	28.94128	479.34393	723.83240	29.12928	582.39398	35.95118	1268.66931	-1018.98981	
4393	43.920	-759.67224	-14.68130	-655.70428	810.30078	-16.29353	-633.46057	-690.66150	28.04576	479.58676	723.48932	28.40270	582.52679	35.36958	1270.19080	-1016.79541	
4394	43.930	-760.20386	-13.87761	-655.69556	810.10345	-15.10306	-633.27350	-691.11353	27.42642	479.83331	723.02295	27.62756	582.81842	35.18980	1271.76770	-1015.48419	
4395	43.940	-760.93732	-12.87780	-655.45618	809.64050	-14.06022	-633.07483	-691.37744	26.52433	480.38107	722.77411	26.67185	583.17700	34.79874	1273.53015	-1013.23566	
4396	43.950	-761.40839	-11.40923	-655.41541	809.27570	-13.16112	-632.86298	-691.42334	25.97068	480.54398	722.47919	26.03929	583.48706	34.17212	1275.08521	-1011.48438	
4397	43.960	-761.81665	-10.50783	-655.34839	808.78314	-12.13252	-632.71564	-692.19495	25.30969	480.71213	721.95129	25.10457	583.71307	34.00948	1276.50525	-1009.25348	
4398	43.970	-761.85150	-9.67769	-655.12482	808.52740	-11.14693	-632.56036	-692.59076	24.62969	480.89847	721.81464	24.24019	584.02185	33.82563	1278.12842	-1007.02179	
4399	43.980	-762.05170	-8.74869	-654.51984	808.40240	-10.00841	-632.05890	-692.84308	23.97764	481.14243	721.38568	23.52065	584.13702	33.28199	1279.55652	-1004.45416	
4400	43.990	-762.33289	-7.45192	-654.51245	808.06390	-9.32750	-632.05853	-693.16675	23.43395	481.43262	721.03802	22.89116	584.39783	33.04918	1281.30640	-1001.95880	
4401	44.000	-762.67450	-6.57393	-654.42889	807.52515	-8.31959	-631.82251	-693.72961	22.76403	481.72922	720.48352	21.86831	584.78882	32.80439	1282.85120	-999.62042	
4402	44.010	-763.26306	-5.55022	-653.86780	807.71375	-7.17391	-631.82910	-693.49768	21.89795	482.10724	720.63019	21.11532	585.00555	32.53640	1284.31787	-996.95929	
4403	44.020	-763.75305	-4.77186	-653.86700	807.02271	-6.04478	-631.27661	-694.40186	21.14729	482.42603	719.81342	20.29984	585.13135	31.91333	1285.91785	-994.77936	
4404	44.030	-764.14703	-3.25041	-653.83887	806.22955	-5.54767	-631.26996	-694.62891	20.81380	482.70313	719.41791	19.43518	585.36774	31.44332	1287.36206	-992.51819	
4405	44.040	-764.30573	-2.26577	-653.66217	806.21460	-3.99595	-630.77216	-695.36334	20.20509	483.01111	719.10712	18.60586	585.87701	31.07705	1289.03796	-990.20520	
4406	44.050	-764.55731	-1.57147	-653.52338	805.91516	-2.85678	-630.54938	-695.58337	19.31799	483.19812	718.68823	17.74430	585.90546	30.62924	1290.60034	-988.23743	
4407	44.060	-764.56244	-0.48164	-652.63708	805.56683	-1.88026	-630.32666	-695.73547	18.51501	483.22147	718.63519	16.83559	586.33838	30.41487	1292.16199	-985.96808	
4408	44.070	-765.88989	1.04335	-652.57642	805.18097	-0.90912	-630.01483	-696.16010	17.63816	483.58362	718.25085	16.08168	586.37842	29.87756	1293.89868	-984.26782	
4409	44.080	-766.05719	1.76214	-652.47711	804.82385	0.14884	-629.78644	-696.45245	17.06098	483.77740	717.81506	15.03112	586.76599	29.51365	1295.39539	-982.00732	
4410	44.090	-766.04614	2.73652	-652.14026	804.28809	1.36114	-629.67303	-696.82306	16.19078	484.06680	717.45050	14.36307	586.95813	29.11548	1297.08899	-979.89667	
4411	44.100	-766.38269	3.78687	-652.04425	804.37183	2.17670	-629.78632	-697.22052	15.40928	484.42178	716.85699	13.36520	587.30505	28.85554	1298.62915	-977.63611	
